<svg xmlns="http://www.w3.org/2000/svg" viewBox="0 0 64 64"><defs><style>.cls-1{fill:#1e3a8a;}</style></defs><title>Grid</title><g id="Layer_2" data-name="Layer 2"><path class="cls-1" d="M56,44H53.82A1.82,1.82,0,0,1,52,42.18V21.82A1.82,1.82,0,0,1,53.82,20H56a4,4,0,0,0,0-8H53.82A1.82,1.82,0,0,1,52,10.18V8a4,4,0,0,0-8,0v2.18A1.82,1.82,0,0,1,42.18,12H28.13a4,4,0,0,0,0,8H38.58A5.42,5.42,0,0,1,44,25.42V56a4,4,0,0,0,8,0V53.82A1.82,1.82,0,0,1,53.82,52H56a4,4,0,0,0,0-8Z"/><path class="cls-1" d="M10.24,44H8.06a4,4,0,0,0,0,8h2.18a1.82,1.82,0,0,1,1.82,1.82V56a4,4,0,1,0,8,0V53.82A1.82,1.82,0,0,1,21.88,52H35.94a4,4,0,0,0,0-8H25.48a5.42,5.42,0,0,1-5.42-5.42V8a4,4,0,1,0-8,0v2.18A1.82,1.82,0,0,1,10.24,12H8.06a4,4,0,0,0,0,8h2.18a1.82,1.82,0,0,1,1.82,1.82V42.18A1.82,1.82,0,0,1,10.24,44Z"/></g></svg>