<?xml version="1.0" encoding="iso-8859-1"?>
<!-- Generator: Adobe Illustrator 19.0.0, SVG Export Plug-In . SVG Version: 6.00 Build 0)  -->
<svg version="1.1" id="Layer_1" xmlns="http://www.w3.org/2000/svg" xmlns:xlink="http://www.w3.org/1999/xlink" x="0px" y="0px"
	 viewBox="0 0 438.493 438.493" style="enable-background:new 0 0 438.493 438.493;" xml:space="preserve">
<path style="fill:#C17E52;" d="M438.493,414.854c0,13.052-10.587,23.631-23.631,23.631H23.631C10.587,438.485,0,427.906,0,414.854
	V23.639C0,10.587,10.587,0.008,23.631,0.008h391.231c13.044,0,23.631,10.579,23.631,23.631V414.854z"/>
<path style="fill:#B56841;" d="M438.493,23.639v391.215c0,13.052-10.587,23.631-23.631,23.631H23.631"/>
<path style="fill:#A86743;" d="M0,23.639C0,10.587,10.587,0.008,23.631,0.008h391.231c13.044,0,23.631,10.579,23.631,23.631v391.215
	c0,13.052-10.587,23.631-23.631,23.631"/>
<path style="fill:#EFE1A5;" d="M152.292,0.008v116.271c0,5.593,4.537,10.13,10.122,10.13h113.664c5.593,0,10.122-4.537,10.122-10.13
	V0.008H152.292z"/>
<path style="fill:#DBCB86;" d="M276.078,126.409c5.593,0,10.122-4.537,10.122-10.13V0.008H152.292"/>
<path style="fill:#FFE91D;" d="M185.525,376.391l-82.432-82.432c-9.232-9.224-9.232-24.19,0-33.414
	c9.232-9.232,24.182-9.232,33.414,0l49.018,49.018l148.708-148.708c9.232-9.232,24.182-9.232,33.414,0
	c9.232,9.224,9.232,24.19,0,33.414L185.525,376.391z"/>
<path style="fill:#FFD400;" d="M347.357,173.978L198.656,322.686l-13.131-13.123l0,0l-35.927-35.927
	c-9.232-9.192-24.151-9.184-33.375,0.032c-9.232,9.224-9.232,24.19,0,33.414l69.301,69.309l182.122-182.122
	c6.892-6.892,8.633-16.998,5.215-25.513C364.355,165.344,354.265,167.077,347.357,173.978z"/>
<g>
</g>
<g>
</g>
<g>
</g>
<g>
</g>
<g>
</g>
<g>
</g>
<g>
</g>
<g>
</g>
<g>
</g>
<g>
</g>
<g>
</g>
<g>
</g>
<g>
</g>
<g>
</g>
<g>
</g>
</svg>
