<?xml version="1.0" encoding="iso-8859-1"?>
<!-- Generator: Adobe Illustrator 19.0.0, SVG Export Plug-In . SVG Version: 6.00 Build 0)  -->
<svg version="1.1" id="Layer_1" xmlns="http://www.w3.org/2000/svg" xmlns:xlink="http://www.w3.org/1999/xlink" x="0px" y="0px"
	 viewBox="0 0 512 512" style="enable-background:new 0 0 512 512;" xml:space="preserve">
<path style="fill:#507C5C;" d="M112.222,509.615c-7.907,0-14.317-6.411-14.317-14.317V78.599c0-7.906,6.41-14.317,14.317-14.317
	s14.317,6.411,14.317,14.317v416.699C126.539,503.205,120.129,509.615,112.222,509.615z"/>
<circle style="fill:#CFF09E;" cx="112.218" cy="48.679" r="34.361"/>
<g>
	<path style="fill:#507C5C;" d="M112.222,97.357c-26.842,0-48.679-21.837-48.679-48.679S85.38,0,112.222,0
		s48.679,21.837,48.679,48.679S139.063,97.357,112.222,97.357z M112.222,28.634c-11.053,0-20.044,8.991-20.044,20.044
		s8.991,20.044,20.044,20.044s20.044-8.991,20.044-20.044S123.275,28.634,112.222,28.634z"/>
	<path style="fill:#507C5C;" d="M329.369,301.056H189.297c-7.907,0-14.317-6.411-14.317-14.317c0-7.906,6.41-14.317,14.317-14.317
		h140.071c4.474,0,8.114-3.639,8.114-8.114V135.215c0-13.815-11.24-25.055-25.055-25.055H126.539v176.579
		c0,7.906-6.41,14.317-14.317,14.317s-14.317-6.411-14.317-14.317V95.842c0-7.906,6.41-14.317,14.317-14.317h200.205
		c29.605,0,53.69,24.084,53.69,53.69v129.093C366.117,284.571,349.63,301.056,329.369,301.056z"/>
</g>
<path style="fill:#CFF09E;" d="M428.168,166.703h-76.368v97.606c0,12.387-10.042,22.429-22.431,22.429h-104.03v31.489
	c0,21.745,17.627,39.372,39.372,39.372h163.457c12.387,0,22.431-10.044,22.431-22.431V189.134
	C450.598,176.746,440.556,166.703,428.168,166.703z"/>
<g>
	<path style="fill:#507C5C;" d="M428.169,371.919H264.712c-29.605,0-53.69-24.084-53.69-53.69V286.74
		c0-7.906,6.41-14.317,14.317-14.317h104.029c4.474,0,8.114-3.639,8.114-8.112v-97.606c0-7.906,6.411-14.317,14.317-14.317h76.37
		c20.262,0,36.747,16.486,36.747,36.748v146.036C464.916,355.432,448.431,371.919,428.169,371.919z M239.657,301.056v17.172
		c0,13.815,11.24,25.055,25.055,25.055h163.457c4.473,0,8.112-3.639,8.112-8.114V189.133c0-4.474-3.639-8.114-8.112-8.114h-62.052
		v83.289c0,20.262-16.485,36.747-36.748,36.747H239.657z"/>
	<path style="fill:#507C5C;" d="M162.099,512H61.402c-7.907,0-14.317-6.411-14.317-14.317s6.41-14.317,14.317-14.317h100.697
		c7.907,0,14.317,6.411,14.317,14.317S170.006,512,162.099,512z"/>
</g>
<g>
</g>
<g>
</g>
<g>
</g>
<g>
</g>
<g>
</g>
<g>
</g>
<g>
</g>
<g>
</g>
<g>
</g>
<g>
</g>
<g>
</g>
<g>
</g>
<g>
</g>
<g>
</g>
<g>
</g>
</svg>
